<svg width="46" height="26" viewBox="0 0 46 26" fill="none" xmlns="http://www.w3.org/2000/svg">
<path d="M0 3.03225e-06C0.866825 -0.000820126 1.72532 0.16596 2.52645 0.490817C3.32757 0.815674 4.05562 1.29224 4.669 1.89329C5.28238 2.49434 5.76908 3.2081 6.10128 3.99378C6.43348 4.77947 6.60469 5.62168 6.6051 6.47231V13.543C6.6051 14.2698 6.63064 15.0123 6.68811 15.7704C6.73098 16.4823 6.90174 17.1813 7.19251 17.8349C7.47573 18.4538 7.93883 18.9769 8.52374 19.3386C9.12605 19.7229 9.97736 19.915 11.0777 19.915C12.1759 19.915 13.025 19.7239 13.6316 19.3386C14.2104 18.9708 14.6709 18.4494 14.9597 17.8349C15.2598 17.1834 15.4371 16.4839 15.4832 15.7704C15.5364 15.0123 15.5641 14.2698 15.5662 13.543V6.44099C15.5658 5.59503 15.7353 4.75728 16.065 3.97564C16.3947 3.194 16.8781 2.48379 17.4877 1.8856C18.0973 1.28742 18.821 0.812999 19.6175 0.489455C20.4141 0.165911 21.2678 -0.000408726 22.1298 3.03225e-06V14.4327C22.1298 18.309 21.2264 21.1389 19.4195 22.9225C17.6125 24.7061 14.833 25.5979 11.0809 25.5979C7.33297 25.5979 4.55025 24.7061 2.73271 22.9225C0.915158 21.1389 0.00425655 18.309 0 14.4327V3.03225e-06Z" fill="#FFA624"/>
<path d="M36.6364 8.72791C35.5075 8.7274 34.3898 8.94735 33.3485 9.37494C32.3071 9.80252 31.3629 10.4292 30.5708 11.2185V3.59915e-06C29.84 -0.000819677 29.1163 0.139603 28.4409 0.413255C27.7655 0.686907 27.1516 1.08843 26.6343 1.59489C26.117 2.10136 25.7064 2.70285 25.426 3.36503C25.1456 4.0272 25.0008 4.73709 25 5.45416V25.0215C25.9931 25.0204 26.9679 24.7583 27.8229 24.2624C28.6779 23.7666 29.382 23.0552 29.862 22.202C30.7443 23.3358 31.9068 24.23 33.2395 24.7998C34.5722 25.3696 36.0311 25.5963 37.478 25.4584C38.9249 25.3204 40.312 24.8224 41.508 24.0115C42.7041 23.2005 43.6694 22.1035 44.3127 20.8242C44.9561 19.545 45.2561 18.1257 45.1844 16.7009C45.1127 15.2761 44.6717 13.8927 43.9031 12.6819C43.1344 11.471 42.0637 10.4727 40.792 9.7813C39.5204 9.08994 38.0901 8.72845 36.6364 8.73105V8.72791ZM36.6364 21.6631C35.7196 21.6631 34.8234 21.3964 34.0611 20.8965C33.2988 20.3967 32.7047 19.6863 32.3538 18.8551C32.003 18.0239 31.9112 17.1093 32.09 16.2269C32.2689 15.3445 32.7104 14.534 33.3586 13.8979C34.0069 13.2617 34.8328 12.8285 35.732 12.653C36.6312 12.4774 37.5632 12.5675 38.4102 12.9118C39.2572 13.2561 39.9812 13.8391 40.4905 14.5872C40.9999 15.3352 41.2717 16.2147 41.2717 17.1143C41.2709 18.3205 40.7822 19.477 39.9131 20.3299C39.044 21.1828 37.8655 21.6623 36.6364 21.6631Z" fill="#FF601A"/>
</svg>
