<svg width="38" height="30" viewBox="0 0 38 30" fill="none" xmlns="http://www.w3.org/2000/svg">
<g id="Mastercard-logo 1" clip-path="url(#clip0_3596_547)">
<path id="XMLID_1775_" d="M6.88793 29.9343V27.9433C6.88793 27.1817 6.43156 26.683 5.64813 26.683C5.25642 26.683 4.83048 26.8144 4.53765 27.2474C4.30946 26.884 3.9824 26.683 3.49181 26.683C3.16475 26.683 2.83769 26.7835 2.57908 27.1469V26.7487H1.89453V29.9343H2.57908V28.1753C2.57908 27.6108 2.87191 27.3441 3.32828 27.3441C3.78464 27.3441 4.01283 27.6418 4.01283 28.1753V29.9343H4.69737V28.1753C4.69737 27.6108 5.02443 27.3441 5.44657 27.3441C5.90294 27.3441 6.13112 27.6418 6.13112 28.1753V29.9343H6.88793ZM17.042 26.7487H15.9316V25.7861H15.247V26.7487H14.6271V27.3789H15.247V28.8402C15.247 29.5709 15.5398 30 16.3233 30C16.6161 30 16.9432 29.8995 17.1714 29.768L16.9736 29.1688C16.7758 29.3003 16.5477 29.3351 16.3841 29.3351C16.0571 29.3351 15.9278 29.134 15.9278 28.8054V27.3789H17.0382V26.7487H17.042ZM22.8531 26.6791C22.4614 26.6791 22.199 26.8802 22.0354 27.143V26.7448H21.3509V29.9304H22.0354V28.1366C22.0354 27.607 22.2636 27.3054 22.6896 27.3054C22.8189 27.3054 22.9824 27.3402 23.1155 27.3711L23.3133 26.7062C23.1764 26.6791 22.9824 26.6791 22.8531 26.6791ZM14.0719 27.0116C13.7448 26.7796 13.2884 26.6791 12.7979 26.6791C12.0144 26.6791 11.4934 27.0773 11.4934 27.7075C11.4934 28.2371 11.8851 28.5387 12.5697 28.6353L12.8967 28.6701C13.2542 28.7358 13.452 28.8363 13.452 29.0026C13.452 29.2345 13.1896 29.4008 12.7332 29.4008C12.2768 29.4008 11.9155 29.2345 11.6874 29.0683L11.3603 29.5979C11.7178 29.8647 12.2084 29.9961 12.699 29.9961C13.6117 29.9961 14.1365 29.5631 14.1365 28.9678C14.1365 28.4034 13.7106 28.1057 13.0603 28.0052L12.7332 27.9704C12.4404 27.9356 12.2122 27.8698 12.2122 27.6727C12.2122 27.4407 12.4404 27.3093 12.8017 27.3093C13.1934 27.3093 13.5851 27.4755 13.7828 27.576L14.0719 27.0116ZM32.2846 26.6791C31.8929 26.6791 31.6305 26.8802 31.467 27.143V26.7448H30.7824V29.9304H31.467V28.1366C31.467 27.607 31.6952 27.3054 32.1211 27.3054C32.2504 27.3054 32.4139 27.3402 32.5471 27.3711L32.7448 26.7139C32.6117 26.6791 32.4177 26.6791 32.2846 26.6791ZM23.5376 28.3415C23.5376 29.3041 24.1918 30 25.2034 30C25.6597 30 25.9868 29.8995 26.3139 29.6366L25.9868 29.0722C25.7244 29.2732 25.4658 29.3698 25.1691 29.3698C24.6139 29.3698 24.2222 28.9717 24.2222 28.3415C24.2222 27.7423 24.6139 27.3441 25.1691 27.3131C25.462 27.3131 25.7244 27.4137 25.9868 27.6108L26.3139 27.0464C25.9868 26.7796 25.6597 26.683 25.2034 26.683C24.1918 26.6791 23.5376 27.3789 23.5376 28.3415ZM29.8697 28.3415V26.7487H29.1852V27.1469C28.957 26.8492 28.6299 26.683 28.204 26.683C27.3217 26.683 26.6371 27.3789 26.6371 28.3415C26.6371 29.3041 27.3217 30 28.204 30C28.6603 30 28.9874 29.8338 29.1852 29.5361V29.9343H29.8697V28.3415ZM27.3559 28.3415C27.3559 27.7771 27.7134 27.3131 28.3029 27.3131C28.8581 27.3131 29.2498 27.7461 29.2498 28.3415C29.2498 28.9059 28.8581 29.3698 28.3029 29.3698C27.7172 29.3351 27.3559 28.9021 27.3559 28.3415ZM19.1641 26.6791C18.2514 26.6791 17.5973 27.3441 17.5973 28.3376C17.5973 29.3351 18.2514 29.9961 19.1984 29.9961C19.6547 29.9961 20.1111 29.8647 20.4724 29.5631L20.1453 29.0644C19.8829 29.2655 19.5559 29.3969 19.2326 29.3969C18.8067 29.3969 18.3845 29.1959 18.2856 28.6353H20.6017C20.6017 28.5348 20.6017 28.4691 20.6017 28.3686C20.6321 27.3441 20.0427 26.6791 19.1641 26.6791ZM19.1641 27.2784C19.5901 27.2784 19.8829 27.5451 19.9476 28.0399H18.3161C18.3807 27.6108 18.6736 27.2784 19.1641 27.2784ZM36.1714 28.3415V25.4884H35.4868V27.1469C35.2586 26.8492 34.9316 26.683 34.5056 26.683C33.6233 26.683 32.9388 27.3789 32.9388 28.3415C32.9388 29.3041 33.6233 30 34.5056 30C34.962 30 35.289 29.8338 35.4868 29.5361V29.9343H36.1714V28.3415ZM33.6575 28.3415C33.6575 27.7771 34.015 27.3131 34.6045 27.3131C35.1597 27.3131 35.5515 27.7461 35.5515 28.3415C35.5515 28.9059 35.1597 29.3698 34.6045 29.3698C34.015 29.3351 33.6575 28.9021 33.6575 28.3415ZM10.7404 28.3415V26.7487H10.0559V27.1469C9.82768 26.8492 9.50062 26.683 9.07468 26.683C8.19237 26.683 7.50782 27.3789 7.50782 28.3415C7.50782 29.3041 8.19237 30 9.07468 30C9.53104 30 9.8581 29.8338 10.0559 29.5361V29.9343H10.7404V28.3415ZM8.19617 28.3415C8.19617 27.7771 8.55366 27.3131 9.14313 27.3131C9.69837 27.3131 10.0901 27.7461 10.0901 28.3415C10.0901 28.9059 9.69837 29.3698 9.14313 29.3698C8.55366 29.3351 8.19617 28.9021 8.19617 28.3415Z" fill="black"/>
<g id="Group">
<path id="rect19" d="M24.1272 2.55542H13.8438V21.3363H24.1272V2.55542Z" fill="#FF5A00"/>
<path id="XMLID_330_" d="M14.5276 11.9459C14.5276 8.13016 16.2922 4.74356 19 2.55541C17.0072 0.962629 14.4934 0 11.7514 0C5.2558 0 0 5.34278 0 11.9459C0 18.549 5.2558 23.8918 11.7514 23.8918C14.4934 23.8918 17.0072 22.9291 19 21.3363C16.2884 19.1791 14.5276 15.7616 14.5276 11.9459Z" fill="#EB001B"/>
<path id="path22" d="M38 11.9459C38 18.549 32.7442 23.8918 26.2486 23.8918C23.5066 23.8918 20.9928 22.9291 19 21.3363C21.742 19.1443 23.4724 15.7616 23.4724 11.9459C23.4724 8.13016 21.7078 4.74356 19 2.55541C20.989 0.962629 23.5028 0 26.2448 0C32.7442 0 38 5.37758 38 11.9459Z" fill="#F79E1B"/>
</g>
</g>
<defs>
<clipPath id="clip0_3596_547">
<rect width="38" height="30" fill="white"/>
</clipPath>
</defs>
</svg>
