<svg id="Layer_1" data-name="Layer 1" xmlns="http://www.w3.org/2000/svg" viewBox="0 0 426.01 108.53"><title>unibilim-logo-web</title><path d="M167.63,138.78Z" transform="translate(-62.02 -44.49)" style="fill:#402bbf"/><path d="M62,44.49A20.67,20.67,0,0,1,82.69,65.15V87.72c0,2.32.08,4.69.26,7.11a19.32,19.32,0,0,0,1.58,6.59,11,11,0,0,0,4.17,4.8q2.83,1.84,8,1.84c3.44,0,6.1-.61,8-1.84a11.41,11.41,0,0,0,4.16-4.8,18.9,18.9,0,0,0,1.64-6.59q.25-3.63.26-7.11V65.05a20.55,20.55,0,0,1,20.56-20.56h0V90.56q0,18.56-8.49,27.1T96.71,126.2q-17.61,0-26.15-8.54T62,90.56V44.49Z" transform="translate(-62.02 -44.49)" style="fill:#ffa624"/><path d="M158.81,45.65h0V52.5a21,21,0,0,1,7.91-6.38,24.92,24.92,0,0,1,9.38-1.63,23.46,23.46,0,0,1,9.75,1.85,19.53,19.53,0,0,1,6.91,5.21,15.07,15.07,0,0,1,3.16,6.12,32,32,0,0,1,.84,7.7v82.95h0a19.08,19.08,0,0,1-19.08-19.08V72.43A29.15,29.15,0,0,0,177.1,66a8.14,8.14,0,0,0-2-4,7.34,7.34,0,0,0-2.85-1.79,10.68,10.68,0,0,0-3.38-.53q-4.84,0-7.43,2.9c-1.72,1.94-2.58,4.69-2.58,8.28V104.9A19.08,19.08,0,0,1,139.73,124h0V64.73A19.08,19.08,0,0,1,158.81,45.65Z" transform="translate(-62.02 -44.49)" style="fill:#ffa624"/><path d="M208.46,55.24a10.25,10.25,0,0,1,.85-4.16,10.89,10.89,0,0,1,2.32-3.43,11.07,11.07,0,0,1,3.42-2.32,10.75,10.75,0,0,1,8.33,0,10.92,10.92,0,0,1,5.75,5.75,10.75,10.75,0,0,1,0,8.33,11.07,11.07,0,0,1-2.32,3.42,10.89,10.89,0,0,1-3.43,2.32,10.63,10.63,0,0,1-8.33,0,11,11,0,0,1-5.74-5.74A10.27,10.27,0,0,1,208.46,55.24Zm20.35,35.51v57.57h0a19.08,19.08,0,0,1-19.08-19.08V71.67h0A19.08,19.08,0,0,1,228.81,90.75Z" transform="translate(-62.02 -44.49)" style="fill:#ffa624"/><path d="M311.18,56.33a9.56,9.56,0,0,1,.77-3.8,10.06,10.06,0,0,1,5.24-5.24,9.79,9.79,0,0,1,7.61,0A10.06,10.06,0,0,1,330,52.53a9.79,9.79,0,0,1,0,7.61,10.06,10.06,0,0,1-5.24,5.24,9.79,9.79,0,0,1-7.61,0A10.06,10.06,0,0,1,312,60.14,9.57,9.57,0,0,1,311.18,56.33Zm18.57,36.38v32h0a17.42,17.42,0,0,1-17.42-17.42V75.29h0A17.42,17.42,0,0,1,329.75,92.71Z" transform="translate(-62.02 -44.49)" style="fill:#ff601a"/><path d="M360.83,62.2v62.46h0a17.41,17.41,0,0,1-17.41-17.42V44.79h0A17.41,17.41,0,0,1,360.83,62.2Z" transform="translate(-62.02 -44.49)" style="fill:#ff601a"/><path d="M404.5,75.72h11.35a6.07,6.07,0,0,1,6.07,6.07h0Q429,75,437.89,75a18.58,18.58,0,0,1,16.75,9.24q5.87-9.33,16.74-9.33a20.92,20.92,0,0,1,6.54,1,13.44,13.44,0,0,1,5.3,3.17,15.37,15.37,0,0,1,3.51,5.63,23.84,23.84,0,0,1,1.3,8.38v32h0a17.42,17.42,0,0,1-17.42-17.42v-6.93a29.57,29.57,0,0,0-.53-6.15,9.6,9.6,0,0,0-1.54-3.76A5.2,5.2,0,0,0,466.18,89a8.53,8.53,0,0,0-2.88-.48q-8.37,0-8.38,12.22v15.64a8.7,8.7,0,0,1-8.7,8.71h0a8.71,8.71,0,0,1-8.71-8.71V100.74a33.11,33.11,0,0,0-.48-6.2,11.58,11.58,0,0,0-1.4-3.9,4.63,4.63,0,0,0-2.36-2,9.79,9.79,0,0,0-3.36-.53,9.65,9.65,0,0,0-3.08.48,5.39,5.39,0,0,0-2.55,1.88,10.21,10.21,0,0,0-1.74,3.85,27,27,0,0,0-.62,6.39v6.93a17.42,17.42,0,0,1-17.42,17.42h0Z" transform="translate(-62.02 -44.49)" style="fill:#ff601a"/><path d="M393.6,114.75a9.56,9.56,0,0,1-.77,3.8,10,10,0,0,1-5.24,5.24,9.79,9.79,0,0,1-7.61,0,10,10,0,0,1-5.24-5.24,9.76,9.76,0,0,1,0-7.6A10,10,0,0,1,380,105.7a9.79,9.79,0,0,1,7.61,0,10,10,0,0,1,5.24,5.25A9.49,9.49,0,0,1,393.6,114.75ZM375,78.37V46.42h0a17.42,17.42,0,0,1,17.42,17.42v32h0A17.42,17.42,0,0,1,375,78.37Z" transform="translate(-62.02 -44.49)" style="fill:#ff601a"/><path d="M276.7,72.65a26.65,26.65,0,0,0-19,7.95V44.79A17.43,17.43,0,0,0,240.25,62.2v62.46a17.42,17.42,0,0,0,15.23-9,26.76,26.76,0,1,0,21.22-43Zm0,41.29a14.52,14.52,0,1,1,14.52-14.52A14.53,14.53,0,0,1,276.7,113.94Z" transform="translate(-62.02 -44.49)" style="fill:#ff601a"/><path d="M243.18,147.8a6,6,0,0,1-2.24-2.25,6.42,6.42,0,0,1-.82-3.19V142a6.5,6.5,0,0,1,.81-3.22,6,6,0,0,1,5.35-3.12,6.13,6.13,0,0,1,3.15.83,6,6,0,0,1,2.22,2.29,6.5,6.5,0,0,1,.81,3.22v.35a6.47,6.47,0,0,1-.79,3.21,5.75,5.75,0,0,1-2.19,2.24,6,6,0,0,1-3.12.82A6.23,6.23,0,0,1,243.18,147.8Zm5.71-.87a4.93,4.93,0,0,0,1.82-1.89,5.39,5.39,0,0,0,.67-2.68V142a5.54,5.54,0,0,0-.68-2.72,5,5,0,0,0-1.84-1.91,4.91,4.91,0,0,0-2.59-.7,4.85,4.85,0,0,0-2.57.71,5,5,0,0,0-1.83,1.92,5.56,5.56,0,0,0-.66,2.7v.35a5.49,5.49,0,0,0,.66,2.68,5.13,5.13,0,0,0,7,1.89Z" transform="translate(-62.02 -44.49)"/><path d="M255.69,147.35a5.58,5.58,0,0,1-1.13-3.48c0-.13,0-.33,0-.61a17.45,17.45,0,0,1,.31-3.21,6.12,6.12,0,0,1,1-2.47,3.69,3.69,0,0,1,1.25-1.11,6.07,6.07,0,0,1,1.57-.6c.55-.13,1.3-.29,2.24-.45l1.19-.2.22,1-1.34.23a13.66,13.66,0,0,0-2.81.71,3.39,3.39,0,0,0-1.62,1.35,5.94,5.94,0,0,0-.79,2.64,4.34,4.34,0,0,1,1.28-1.23,3.65,3.65,0,0,1,1.81-.39,3.25,3.25,0,0,1,1.89.53,3.85,3.85,0,0,1,1.36,1.56,5.18,5.18,0,0,1,.51,2.35,5.58,5.58,0,0,1-.45,2.25,4,4,0,0,1-1.32,1.67,3.32,3.32,0,0,1-2,.64A3.72,3.72,0,0,1,255.69,147.35Zm4.53-.32a3.3,3.3,0,0,0,1-1.34,4.84,4.84,0,0,0,.32-1.74,4.43,4.43,0,0,0-.31-1.67,3,3,0,0,0-.9-1.26,2.19,2.19,0,0,0-1.44-.49,3.12,3.12,0,0,0-1.93.65,3.19,3.19,0,0,0-1.2,1.7,1.61,1.61,0,0,0-.09.54,5.57,5.57,0,0,0,.68,3.09,2.64,2.64,0,0,0,2.39,1A2.35,2.35,0,0,0,260.22,147Z" transform="translate(-62.02 -44.49)"/><path d="M270.53,139.76a4,4,0,0,1,1.32,1.67,6.06,6.06,0,0,1,.44,2.34,5.48,5.48,0,0,1-.52,2.45,4,4,0,0,1-1.52,1.67,4.4,4.4,0,0,1-2.37.61c-.3,0-1-.08-2.15-.23V153h-1V142a2.66,2.66,0,0,0-.76-2.1l.72-.72a2.56,2.56,0,0,1,.6.59,2.76,2.76,0,0,1,.42.84,2.83,2.83,0,0,1,2.73-1.43A3.61,3.61,0,0,1,270.53,139.76Zm-.18,6.78a4,4,0,0,0,.86-2.68,4.68,4.68,0,0,0-.73-2.68,2.35,2.35,0,0,0-2-1.07,2.87,2.87,0,0,0-1.83.64,2.2,2.2,0,0,0-.88,1.64v5c1.11.11,1.8.17,2.06.17A3.21,3.21,0,0,0,270.35,146.54Z" transform="translate(-62.02 -44.49)"/><path d="M280.07,147.87a4,4,0,0,1-.39-.85,2.56,2.56,0,0,1-1.07,1.09,3.57,3.57,0,0,1-1.73.39,3.33,3.33,0,0,1-2.29-.76,2.6,2.6,0,0,1-.85-2.06,2.56,2.56,0,0,1,1-2.13,4.34,4.34,0,0,1,2.74-.76h2.1v-.65a2.38,2.38,0,0,0-.47-1.61,1.86,1.86,0,0,0-1.45-.52,4.4,4.4,0,0,0-1.48.26,4.75,4.75,0,0,0-1.36.71l-.48-.79a4.64,4.64,0,0,1,1.54-.86,5.57,5.57,0,0,1,1.8-.3,3,3,0,0,1,2.22.75,2.89,2.89,0,0,1,.76,2.16v3.78a3,3,0,0,0,.71,2.15l-.71.6A2.56,2.56,0,0,1,280.07,147.87Zm-1.25-1a2.28,2.28,0,0,0,.72-1.74v-1.35h-1.85a4.07,4.07,0,0,0-2.2.44,1.6,1.6,0,0,0-.67,1.45,1.76,1.76,0,0,0,.54,1.39,2.25,2.25,0,0,0,1.54.48A2.7,2.7,0,0,0,278.82,146.86Z" transform="translate(-62.02 -44.49)"/><path d="M284,148.3a4.33,4.33,0,0,1-1.57-.85l.65-.67a3.29,3.29,0,0,0,1.16.57,5.08,5.08,0,0,0,1.59.25,4.05,4.05,0,0,0,1.56-.29,2.63,2.63,0,0,0,1.07-.78,1.69,1.69,0,0,0,.39-1.08,1.73,1.73,0,0,0-.55-1.29,2,2,0,0,0-1.46-.54h-2.15v-.92l2.14,0a1.71,1.71,0,0,0,1.1-.36,1.12,1.12,0,0,0,.45-.89,1.15,1.15,0,0,0-.83-1.07,4.93,4.93,0,0,0-1.83-.34,8,8,0,0,0-2.45.38l-.22-.92a9.21,9.21,0,0,1,2.93-.47,4.73,4.73,0,0,1,1.89.34,2.94,2.94,0,0,1,1.19.89,1.84,1.84,0,0,1,.14,2.12,1.79,1.79,0,0,1-.66.7,3.19,3.19,0,0,1,1,1,2.77,2.77,0,0,1-.21,3,3.49,3.49,0,0,1-1.51,1.08,5.6,5.6,0,0,1-2,.36A6.16,6.16,0,0,1,284,148.3Z" transform="translate(-62.02 -44.49)"/><path d="M293.61,147.9a4.12,4.12,0,0,1-1.57-1.66,5.49,5.49,0,0,1,0-4.85,4.2,4.2,0,0,1,1.58-1.68,4.55,4.55,0,0,1,4.55,0,4.21,4.21,0,0,1,1.57,1.67,5.42,5.42,0,0,1,0,4.84,4.21,4.21,0,0,1-1.57,1.67,4.28,4.28,0,0,1-2.28.61A4.37,4.37,0,0,1,293.61,147.9Zm4.72-1.41a3.93,3.93,0,0,0,.91-2.69,4.29,4.29,0,0,0-.42-1.94,3.1,3.1,0,0,0-1.17-1.31,3.47,3.47,0,0,0-3.49,0,3.12,3.12,0,0,0-1.18,1.33,4.49,4.49,0,0,0-.41,1.94,4.37,4.37,0,0,0,.41,1.92,3.13,3.13,0,0,0,1.18,1.31,3.22,3.22,0,0,0,1.75.48A3.08,3.08,0,0,0,298.33,146.49Z" transform="translate(-62.02 -44.49)"/><path d="M306.36,139.21a3,3,0,0,1,2.08.66,2.09,2.09,0,0,1,.72,1.6,2.45,2.45,0,0,1-.21,1,2.15,2.15,0,0,1-.62.85,2.54,2.54,0,0,1,1,1,2.84,2.84,0,0,1,.36,1.41,2.52,2.52,0,0,1-.69,1.78,2.81,2.81,0,0,1-2,.78l-4.41,0v-9.09Zm1.33,3.27a1.43,1.43,0,0,0,.41-1,1.12,1.12,0,0,0-.45-.94,1.88,1.88,0,0,0-1.2-.34h-2.82V143l3,0A1.7,1.7,0,0,0,307.69,142.48Zm.48,4.44a1.52,1.52,0,0,0,.47-1.18,1.89,1.89,0,0,0-.45-1.26,1.62,1.62,0,0,0-1.27-.55l-3.29,0v3.38h3.29A1.82,1.82,0,0,0,308.17,146.92Z" transform="translate(-62.02 -44.49)"/><path d="M317.45,147.87a4,4,0,0,1-.39-.85,2.53,2.53,0,0,1-1.08,1.09,3.53,3.53,0,0,1-1.72.39,3.32,3.32,0,0,1-2.29-.76,2.61,2.61,0,0,1-.86-2.06,2.54,2.54,0,0,1,1-2.13,4.32,4.32,0,0,1,2.74-.76h2.1v-.65a2.33,2.33,0,0,0-.48-1.61A1.83,1.83,0,0,0,315,140a4.36,4.36,0,0,0-1.48.26,4.75,4.75,0,0,0-1.36.71l-.49-.79a4.69,4.69,0,0,1,1.55-.86,5.48,5.48,0,0,1,1.8-.3,3,3,0,0,1,2.22.75,2.89,2.89,0,0,1,.76,2.16v3.78a3,3,0,0,0,.7,2.15l-.7.6A2.56,2.56,0,0,1,317.45,147.87Zm-1.25-1a2.28,2.28,0,0,0,.72-1.74v-1.35h-1.85a4.07,4.07,0,0,0-2.2.44,1.6,1.6,0,0,0-.67,1.45,1.76,1.76,0,0,0,.54,1.39,2.24,2.24,0,0,0,1.54.48A2.72,2.72,0,0,0,316.2,146.86Z" transform="translate(-62.02 -44.49)"/><path d="M323.17,140.28h-3.45v-1h8v1h-3.45v8h-1.08Z" transform="translate(-62.02 -44.49)"/><path d="M330.51,146.5a2.47,2.47,0,0,0,2.38,1.06,4.39,4.39,0,0,0,1.38-.21,9.74,9.74,0,0,0,1.5-.66l.46.76a6.1,6.1,0,0,1-1.6.78,5.91,5.91,0,0,1-1.81.29,3.72,3.72,0,0,1-3-1.22,4.74,4.74,0,0,1-1.05-3.21,6.22,6.22,0,0,1,.47-2.45,4.18,4.18,0,0,1,1.38-1.81,3.5,3.5,0,0,1,2.18-.69,3.7,3.7,0,0,1,1.88.48A3.45,3.45,0,0,1,336,141a3.88,3.88,0,0,1,.48,1.94c0,.19,0,.36,0,.51s0,.28,0,.39l0,.38h-6.53A4.7,4.7,0,0,0,330.51,146.5Zm5-3.29a3.26,3.26,0,0,0,0-.37,2.91,2.91,0,0,0-.36-1.45,2.62,2.62,0,0,0-1-1,2.61,2.61,0,0,0-3.25.46,3.94,3.94,0,0,0-1,2.36Z" transform="translate(-62.02 -44.49)"/><path d="M337.48,147.92l.8-.61a.6.6,0,0,0,.5.25.54.54,0,0,0,.47-.21,2.14,2.14,0,0,0,.31-.66,12.35,12.35,0,0,0,.44-3.05c.07-1.31.1-2.78.1-4.39l5.93,0v9H345v-8.08h-3.84c0,1.26-.06,2.54-.14,3.85a12.9,12.9,0,0,1-.43,2.91,2.92,2.92,0,0,1-.65,1.17,1.72,1.72,0,0,1-2.41-.25Z" transform="translate(-62.02 -44.49)"/><path d="M350,139.28v3.2l3.15,0a3,3,0,0,1,1.51.43,2.72,2.72,0,0,1,1,1.09,3.14,3.14,0,0,1,.37,1.52,2.74,2.74,0,0,1-.84,2.14,3.13,3.13,0,0,1-2.29.73l-4-.05v-9Zm4.41,7.55a1.7,1.7,0,0,0,.53-1.29,2.14,2.14,0,0,0-.55-1.46,2,2,0,0,0-1.59-.59H350v3.88h2.8A2.38,2.38,0,0,0,354.38,146.83Z" transform="translate(-62.02 -44.49)"/><path d="M365.33,148.32h-1.08v-4h-5l0,4h-1.1v-6.8a2.57,2.57,0,0,0-.69-1.75l.72-.7a3.49,3.49,0,0,1,.8,1.14,3.24,3.24,0,0,1,.25,1.3v1.86h5v-4.09h1.08Z" transform="translate(-62.02 -44.49)"/><path d="M373.76,147.87a4.62,4.62,0,0,1-.38-.85,2.58,2.58,0,0,1-1.08,1.09,3.57,3.57,0,0,1-1.73.39,3.29,3.29,0,0,1-2.28-.76,2.61,2.61,0,0,1-.86-2.06,2.54,2.54,0,0,1,1-2.13,4.29,4.29,0,0,1,2.73-.76h2.1v-.65a2.38,2.38,0,0,0-.47-1.61,1.83,1.83,0,0,0-1.44-.52,4.42,4.42,0,0,0-1.49.26,4.83,4.83,0,0,0-1.35.71l-.49-.79a4.69,4.69,0,0,1,1.55-.86,5.47,5.47,0,0,1,1.79-.3,3.05,3.05,0,0,1,2.23.75,2.93,2.93,0,0,1,.76,2.16v3.78a3,3,0,0,0,.7,2.15l-.7.6A2.62,2.62,0,0,1,373.76,147.87Zm-1.24-1a2.31,2.31,0,0,0,.71-1.74v-1.35h-1.84a4.11,4.11,0,0,0-2.21.44,1.62,1.62,0,0,0-.67,1.45,1.76,1.76,0,0,0,.55,1.39,2.23,2.23,0,0,0,1.53.48A2.74,2.74,0,0,0,372.52,146.86Z" transform="translate(-62.02 -44.49)"/><path d="M376.65,148.5a1.16,1.16,0,0,1-.4-.14l.58-.83a.36.36,0,0,0,.29.05,2.14,2.14,0,0,0,.74-.61c.27-.32.53-.63.76-.93a14.52,14.52,0,0,1,1-1.17,1.14,1.14,0,0,1,.47-.26h-.64a2.76,2.76,0,0,1-1-.16,2.55,2.55,0,0,1-.93-.57,2.49,2.49,0,0,1-.65-.87,2.68,2.68,0,0,1-.21-1,2.45,2.45,0,0,1,.66-1.72,3.28,3.28,0,0,1,2.14-1h4.25v9h-1.09v-3.8a3.48,3.48,0,0,0-1.21.29,2.87,2.87,0,0,0-1.12.76l-.4.53-.76.94a11.47,11.47,0,0,1-.76.88,1.89,1.89,0,0,1-1.24.63A1.93,1.93,0,0,1,376.65,148.5Zm2.32-5a7,7,0,0,0,1.63.12l2,0v-3.34l-2,0a6.75,6.75,0,0,0-1.21.05,2.23,2.23,0,0,0-.73.22,1.66,1.66,0,0,0-.67.61,1.61,1.61,0,0,0-.23.82,1.47,1.47,0,0,0,.31.9A1.59,1.59,0,0,0,379,143.52Z" transform="translate(-62.02 -44.49)"/><path d="M398.77,148.32h-1.08v-8h-5v8h-1.08v-9h7.14Z" transform="translate(-62.02 -44.49)"/><path d="M400.43,147.92l.8-.61a.6.6,0,0,0,.5.25.55.55,0,0,0,.47-.21,2.14,2.14,0,0,0,.31-.66,12.35,12.35,0,0,0,.44-3.05c.07-1.31.1-2.78.1-4.39l5.93,0v9h-1.09v-8.08h-3.83c0,1.26-.06,2.54-.14,3.85a12.9,12.9,0,0,1-.43,2.91,2.92,2.92,0,0,1-.65,1.17,1.72,1.72,0,0,1-2.41-.25Z" transform="translate(-62.02 -44.49)"/><path d="M417.39,147.87A4.62,4.62,0,0,1,417,147a2.58,2.58,0,0,1-1.08,1.09,3.57,3.57,0,0,1-1.73.39,3.29,3.29,0,0,1-2.28-.76,2.61,2.61,0,0,1-.86-2.06,2.54,2.54,0,0,1,1-2.13,4.29,4.29,0,0,1,2.73-.76h2.1v-.65a2.38,2.38,0,0,0-.47-1.61,1.83,1.83,0,0,0-1.45-.52,4.4,4.4,0,0,0-1.48.26,4.69,4.69,0,0,0-1.35.71l-.49-.79a4.64,4.64,0,0,1,1.54-.86,5.57,5.57,0,0,1,1.8-.3,3.05,3.05,0,0,1,2.23.75,2.92,2.92,0,0,1,.75,2.16v3.78a3,3,0,0,0,.71,2.15l-.71.6A2.8,2.8,0,0,1,417.39,147.87Zm-1.24-1a2.31,2.31,0,0,0,.71-1.74v-1.35H415a4.11,4.11,0,0,0-2.21.44,1.62,1.62,0,0,0-.67,1.45,1.73,1.73,0,0,0,.55,1.39,2.23,2.23,0,0,0,1.53.48A2.74,2.74,0,0,0,416.15,146.86Z" transform="translate(-62.02 -44.49)"/><path d="M423.11,140.28h-3.45v-1h8v1H424.2v8h-1.09Z" transform="translate(-62.02 -44.49)"/><path d="M430.93,147.87a4.73,4.73,0,0,1-1.7-6.29,4.62,4.62,0,0,1,1.7-1.76,5.77,5.77,0,0,1,2.72-.81v-2.93h1.08V139a6.05,6.05,0,0,1,2.59.73,4.9,4.9,0,0,1,1.79,1.71,4.59,4.59,0,0,1,0,4.69,5,5,0,0,1-1.79,1.78,5.27,5.27,0,0,1-2.58.74l0,2.9h-1.08v-2.88A5.77,5.77,0,0,1,430.93,147.87Zm.59-7.18a3.75,3.75,0,0,0-1.33,1.39,3.65,3.65,0,0,0-.44,1.76,3.57,3.57,0,0,0,.44,1.74,3.65,3.65,0,0,0,1.33,1.38,5,5,0,0,0,2.13.66V140A4.82,4.82,0,0,0,431.52,140.69Zm5.36,6.26a3.81,3.81,0,0,0,1.34-1.4,3.57,3.57,0,0,0,0-3.47,3.86,3.86,0,0,0-1.34-1.39,4.91,4.91,0,0,0-2.15-.67v7.63A5.2,5.2,0,0,0,436.88,147Z" transform="translate(-62.02 -44.49)"/><path d="M443.4,147.9a4,4,0,0,1-1.56-1.66,5.05,5.05,0,0,1-.56-2.42,5.13,5.13,0,0,1,.57-2.43,4.18,4.18,0,0,1,1.57-1.68,4.29,4.29,0,0,1,2.29-.61,4.28,4.28,0,0,1,3.84,2.28,5.51,5.51,0,0,1,0,4.84,4.28,4.28,0,0,1-3.86,2.28A4.37,4.37,0,0,1,443.4,147.9Zm4.72-1.41a3.88,3.88,0,0,0,.91-2.69,4.29,4.29,0,0,0-.42-1.94,3,3,0,0,0-1.17-1.31,3.16,3.16,0,0,0-1.73-.47,3.22,3.22,0,0,0-1.76.47,3.1,3.1,0,0,0-1.17,1.33,4.35,4.35,0,0,0-.42,1.94,4.24,4.24,0,0,0,.42,1.92,3.1,3.1,0,0,0,1.17,1.31,3.23,3.23,0,0,0,1.76.48A3.06,3.06,0,0,0,448.12,146.49Z" transform="translate(-62.02 -44.49)"/><path d="M458.15,139.76a4,4,0,0,1,1.32,1.67,6.06,6.06,0,0,1,.44,2.34,5.48,5.48,0,0,1-.52,2.45,4,4,0,0,1-1.52,1.67,4.4,4.4,0,0,1-2.37.61c-.3,0-1-.08-2.15-.23V153h-1V142a2.66,2.66,0,0,0-.76-2.1l.72-.72a2.56,2.56,0,0,1,.6.59,2.76,2.76,0,0,1,.42.84,2.83,2.83,0,0,1,2.73-1.43A3.61,3.61,0,0,1,458.15,139.76Zm-.18,6.78a4,4,0,0,0,.86-2.68,4.68,4.68,0,0,0-.73-2.68,2.35,2.35,0,0,0-2-1.07,2.87,2.87,0,0,0-1.83.64,2.2,2.2,0,0,0-.88,1.64v5c1.11.11,1.8.17,2.06.17A3.21,3.21,0,0,0,458,146.54Z" transform="translate(-62.02 -44.49)"/><path d="M462.68,139.3h1.06l3.42,7.27,3.43-7.27h1.05l1.07,9h-1.07l-.81-7.23-3.22,6.8h-.9l-3.2-6.8-.85,7.23h-1Z" transform="translate(-62.02 -44.49)"/><path d="M480.61,147.87a4.62,4.62,0,0,1-.38-.85,2.58,2.58,0,0,1-1.08,1.09,3.57,3.57,0,0,1-1.73.39,3.29,3.29,0,0,1-2.28-.76,2.61,2.61,0,0,1-.86-2.06,2.54,2.54,0,0,1,1-2.13,4.29,4.29,0,0,1,2.73-.76h2.1v-.65a2.38,2.38,0,0,0-.47-1.61,1.83,1.83,0,0,0-1.44-.52,4.42,4.42,0,0,0-1.49.26,4.69,4.69,0,0,0-1.35.71l-.49-.79a4.69,4.69,0,0,1,1.55-.86,5.47,5.47,0,0,1,1.79-.3,3.05,3.05,0,0,1,2.23.75,2.93,2.93,0,0,1,.76,2.16v3.78a3,3,0,0,0,.7,2.15l-.7.6A2.62,2.62,0,0,1,480.61,147.87Zm-1.24-1a2.31,2.31,0,0,0,.71-1.74v-1.35h-1.84a4.11,4.11,0,0,0-2.21.44,1.62,1.62,0,0,0-.67,1.45,1.76,1.76,0,0,0,.55,1.39,2.23,2.23,0,0,0,1.53.48A2.74,2.74,0,0,0,479.37,146.86Z" transform="translate(-62.02 -44.49)"/></svg>