<svg width="58" height="20" viewBox="0 0 58 20" fill="none" xmlns="http://www.w3.org/2000/svg">
<g id="visa-colored 1" clip-path="url(#clip0_3596_544)">
<path id="Vector" d="M24.9591 18.9339H20.3079L23.2163 0.956861H27.8674L24.9591 18.9339ZM41.8167 1.39676C40.4857 0.884561 39.0708 0.62515 37.6447 0.63184C33.0524 0.63184 29.819 3.0793 29.7994 6.57888C29.7601 9.16084 32.1137 10.594 33.8747 11.4542C35.6736 12.3354 36.2844 12.9098 36.2844 13.6929C36.2676 14.8977 34.8316 15.4525 33.4923 15.4525C31.636 15.4525 30.6413 15.1667 29.1297 14.4971L28.5175 14.2099L27.866 18.2446C28.9574 18.7405 30.9664 19.1818 33.0524 19.2015C37.9319 19.2015 41.1078 16.7918 41.1471 13.0625C41.1653 11.0171 39.9226 9.44803 37.2426 8.16616C35.6175 7.3438 34.62 6.79043 34.62 5.94845C34.6396 5.18353 35.4634 4.399 37.2987 4.399C38.4907 4.3645 39.6751 4.60014 40.7632 5.08827L41.1835 5.2788L41.8167 1.39816V1.39676ZM47.9977 12.5652L49.854 7.53573C49.8344 7.57356 50.2364 6.48502 50.4662 5.81536L50.7912 7.36341C50.7912 7.36341 51.671 11.6657 51.863 12.5652H47.9963H47.9977ZM53.7374 0.958262H50.1412C49.0316 0.958262 48.1883 1.28188 47.7105 2.44887L40.8024 18.9325H45.682L46.6584 16.237H52.6293C52.7624 16.8675 53.1841 18.9325 53.1841 18.9325H57.4892L53.7374 0.958262ZM16.4231 0.956861L11.87 13.2152L11.3712 10.7299C10.5293 7.86075 7.88846 4.74363 4.93945 3.19418L9.11149 18.9129H14.0288L21.339 0.958262H16.4217L16.4231 0.956861Z" fill="#23569A"/>
<path id="Vector_2" d="M7.64017 0.956543H0.159084L0.0820312 1.32079C5.9184 2.8128 9.78362 6.40625 11.3723 10.7296L9.7458 2.46957C9.47822 1.32079 8.65446 0.997171 7.64017 0.959345V0.956543Z" fill="#EEAA41"/>
</g>
<defs>
<clipPath id="clip0_3596_544">
<rect width="58" height="20" fill="white"/>
</clipPath>
</defs>
</svg>
